<?xml version="1.0" encoding="UTF-8"?>
<!-- Generator: visioncortex VTracer 0.6.3 -->
<svg version="1.1" xmlns="http://www.w3.org/2000/svg" width="1280" height="860">
<path d="M0 0 C422.4 0 844.8 0 1280 0 C1280 254.43 1280 508.86 1280 771 C1274.28 772.91 1268.88 774.62 1263.04 775.87 C1261.94 776.11 1261.94 776.11 1260.81 776.35 C1258.42 776.87 1256.02 777.37 1253.62 777.88 C1252.38 778.14 1252.38 778.14 1251.1 778.4 C1227.91 783.25 1204.58 786.53 1181 788.75 C1179.18 788.92 1179.18 788.92 1177.32 789.1 C1157.44 790.83 1137.51 791.08 1117.56 791.03 C1116.65 791.02 1115.75 791.02 1114.81 791.02 C1106.32 790.99 1097.82 790.95 1089.33 790.9 C1058.62 790.73 1028.04 791.27 997.5 794.75 C996.39 794.87 996.39 794.87 995.25 795 C954.86 799.52 916.12 809.34 877.27 821.02 C855.49 827.54 834.75 833.59 813.25 823.02 C804.29 817.44 796.84 810.15 789.44 802.69 C788.56 801.81 787.68 800.94 786.77 800.04 C780.75 794 775.3 787.67 770 781 C768.87 779.61 767.73 778.23 766.59 776.85 C760.2 769.04 753.98 761.14 748 753 C746.94 751.57 745.89 750.14 744.83 748.7 C742.44 745.47 740.06 742.24 737.68 739 C735.26 735.72 732.84 732.43 730.41 729.15 C724.83 721.62 719.31 714.06 713.94 706.38 C699.71 686.08 684.18 666.86 667 649 C666.25 648.21 665.5 647.42 664.73 646.61 C640.54 621.63 605.9 601.76 570.72 600.66 C541.01 600.24 513.69 611.57 486.45 622.15 C461.97 631.5 432.28 639.26 407.01 628.34 C398.18 624.27 390.49 619.21 383 613 C382.18 612.32 381.36 611.64 380.51 610.93 C375.52 606.64 371.23 602.02 367 597 C363.23 592.6 359.43 588.22 355.62 583.86 C354.6 582.69 353.59 581.52 352.58 580.34 C334.88 559.73 312.55 545.21 285.14 542.74 C265.81 541.94 247.31 550.64 229.92 557.98 C198.12 571.38 168.12 581.38 134 569 C120.79 563.41 109.22 555.74 98.19 546.62 C83.4 534.42 64.36 519.68 44.1 520.72 C29.96 522.59 18.09 529.31 6.44 537.15 C2.19 540 2.19 540 0 540 C0 361.8 0 183.6 0 0 Z " fill="#E8C117" transform="translate(0,0)"/>
<path d="M0 0 C422.4 0 844.8 0 1280 0 C1280 132.33 1280 264.66 1280 401 C1274.28 402.91 1268.88 404.62 1263.04 405.87 C1262.3 406.03 1261.57 406.19 1260.81 406.35 C1258.42 406.87 1256.02 407.37 1253.62 407.88 C1252.79 408.05 1251.96 408.22 1251.1 408.4 C1227.91 413.25 1204.58 416.53 1181 418.75 C1179.18 418.92 1179.18 418.92 1177.32 419.1 C1157.44 420.83 1137.51 421.08 1117.56 421.03 C1116.65 421.02 1115.75 421.02 1114.81 421.02 C1106.32 420.99 1097.82 420.95 1089.33 420.9 C1058.62 420.73 1028.04 421.27 997.5 424.75 C996.39 424.87 996.39 424.87 995.25 425 C954.86 429.52 916.12 439.34 877.27 451.02 C855.49 457.54 834.75 463.59 813.25 453.02 C804.29 447.44 796.84 440.15 789.44 432.69 C788.12 431.38 788.12 431.38 786.77 430.04 C780.75 424 775.3 417.67 770 411 C768.87 409.61 767.73 408.23 766.59 406.85 C760.2 399.04 753.98 391.14 748 383 C746.94 381.57 745.89 380.14 744.83 378.7 C742.44 375.47 740.06 372.24 737.68 369 C735.26 365.72 732.84 362.43 730.41 359.15 C724.83 351.62 719.31 344.06 713.94 336.38 C699.71 316.08 684.18 296.86 667 279 C666.25 278.21 665.5 277.42 664.73 276.61 C640.54 251.63 605.9 231.76 570.72 230.66 C541.01 230.24 513.69 241.57 486.45 252.15 C461.97 261.5 432.28 269.26 407.01 258.34 C398.18 254.27 390.49 249.21 383 243 C382.18 242.32 381.36 241.64 380.51 240.93 C375.52 236.64 371.23 232.02 367 227 C363.23 222.6 359.43 218.22 355.62 213.86 C354.6 212.69 353.59 211.52 352.58 210.34 C334.88 189.73 312.55 175.21 285.14 172.74 C265.81 171.94 247.31 180.64 229.92 187.98 C198.12 201.38 168.12 211.38 134 199 C120.79 193.41 109.22 185.74 98.19 176.62 C83.4 164.42 64.36 149.68 44.1 150.72 C29.96 152.59 18.09 159.31 6.44 167.15 C2.19 170 2.19 170 0 170 C0 113.9 0 57.8 0 0 Z " fill="#F1C818" transform="translate(0,370)"/>
<path d="M0 0 C0.78 0.61 0.78 0.61 1.57 1.24 C2.27 1.78 2.97 2.32 3.69 2.88 C4.37 3.41 5.06 3.94 5.76 4.49 C10.37 7.59 14.18 8.25 19.7 8.25 C20.36 8.26 21.03 8.26 21.71 8.26 C23.95 8.27 26.18 8.27 28.42 8.26 C30.04 8.26 31.67 8.27 33.29 8.27 C37.77 8.28 42.25 8.28 46.73 8.28 C51.6 8.28 56.47 8.29 61.33 8.3 C69.87 8.31 78.41 8.31 86.95 8.32 C99.64 8.32 112.34 8.33 125.03 8.35 C146.39 8.37 167.74 8.39 189.09 8.4 C210.24 8.41 231.39 8.42 252.54 8.44 C254.51 8.44 254.51 8.44 256.52 8.45 C261.86 8.45 267.19 8.46 272.52 8.46 C287.43 8.48 302.34 8.49 317.25 8.5 C318.27 8.5 318.27 8.5 319.31 8.5 C352.34 8.53 385.37 8.56 418.41 8.58 C429.87 8.59 441.34 8.59 452.8 8.6 C453.51 8.6 454.22 8.6 454.95 8.6 C488 8.62 521.05 8.65 554.1 8.68 C556.24 8.68 558.39 8.68 560.54 8.69 C574.75 8.7 588.97 8.71 603.19 8.72 C631.47 8.75 659.76 8.77 688.05 8.8 C689.4 8.8 690.75 8.8 692.09 8.8 C733.59 8.84 775.09 8.87 816.59 8.9 C817.75 8.9 818.91 8.9 820.1 8.9 C867.07 8.94 914.03 8.97 961 9 C961 79.62 961 150.24 961 223 C955.28 224.91 949.88 226.62 944.04 227.87 C943.3 228.03 942.57 228.19 941.81 228.35 C939.42 228.87 937.02 229.37 934.62 229.88 C933.79 230.05 932.96 230.22 932.1 230.4 C908.91 235.25 885.58 238.53 862 240.75 C860.79 240.87 859.57 240.98 858.32 241.1 C838.44 242.83 818.51 243.08 798.56 243.03 C797.65 243.02 796.75 243.02 795.81 243.02 C787.32 242.99 778.82 242.95 770.33 242.9 C739.62 242.73 709.04 243.27 678.5 246.75 C677.76 246.83 677.02 246.91 676.25 247 C635.86 251.52 597.12 261.34 558.27 273.02 C536.49 279.54 515.75 285.59 494.25 275.02 C485.29 269.44 477.84 262.15 470.44 254.69 C469.56 253.81 468.68 252.94 467.77 252.04 C461.75 246 456.3 239.67 451 233 C449.87 231.61 448.73 230.23 447.59 228.85 C441.2 221.04 434.98 213.14 429 205 C427.94 203.57 426.89 202.14 425.83 200.7 C423.44 197.47 421.06 194.24 418.68 191 C416.26 187.72 413.84 184.43 411.41 181.15 C405.83 173.62 400.31 166.06 394.94 158.38 C380.71 138.08 365.18 118.86 348 101 C347.25 100.21 346.5 99.42 345.73 98.61 C321.54 73.63 286.9 53.76 251.72 52.66 C222.01 52.24 194.69 63.57 167.45 74.15 C142.97 83.5 113.28 91.26 88.01 80.34 C79.18 76.27 71.49 71.21 64 65 C63.18 64.32 62.36 63.64 61.51 62.93 C56.52 58.64 52.23 54.02 48 49 C44.23 44.6 40.43 40.22 36.62 35.86 C35.6 34.69 34.59 33.52 33.58 32.34 C23.76 20.9 12.33 11.15 -1 4 C-0.67 2.68 -0.34 1.36 0 0 Z " fill="#F4CA17" transform="translate(319,548)"/>
<path d="M0 0 C422.4 0 844.8 0 1280 0 C1280 35.97 1280 71.94 1280 109 C857.6 109 435.2 109 0 109 C0 73.03 0 37.06 0 0 Z " fill="#ECC414" transform="translate(0,261)"/>
<path d="M0 0 C422.4 0 844.8 0 1280 0 C1280 20.79 1280 41.58 1280 63 C857.6 63 435.2 63 0 63 C0 42.21 0 21.42 0 0 Z " fill="#E6BD10" transform="translate(0,0)"/>
<path d="M0 0 C422.4 0 844.8 0 1280 0 C1280 17.82 1280 35.64 1280 54 C857.6 54 435.2 54 0 54 C0 36.18 0 18.36 0 0 Z " fill="#F1C819" transform="translate(0,370)"/>
<path d="M0 0 C422.4 0 844.8 0 1280 0 C1280 12.87 1280 25.74 1280 39 C857.6 39 435.2 39 0 39 C0 26.13 0 13.26 0 0 Z " fill="#EBC119" transform="translate(0,222)"/>
<path d="M0 0 C2.44 0.44 3.76 0.76 5.56 2.52 C9.32 4.8 12.94 4.42 17.25 4.38 C18.21 4.39 19.16 4.4 20.14 4.4 C23.35 4.41 26.56 4.41 29.78 4.4 C32.1 4.4 34.41 4.41 36.73 4.42 C42.45 4.44 48.16 4.44 53.88 4.43 C60.73 4.43 67.57 4.44 74.42 4.46 C87.05 4.49 99.68 4.5 112.32 4.5 C124.83 4.51 137.34 4.52 149.85 4.54 C150.63 4.54 151.41 4.54 152.21 4.54 C156.16 4.55 160.11 4.55 164.05 4.56 C192.03 4.6 220.01 4.63 247.99 4.65 C275.17 4.67 302.35 4.7 329.53 4.74 C330.37 4.74 331.21 4.74 332.07 4.74 C340.48 4.75 348.9 4.76 357.31 4.77 C374.44 4.8 391.58 4.82 408.72 4.84 C409.9 4.84 409.9 4.84 411.11 4.84 C463.74 4.91 516.37 4.96 569 5 C569 26.45 569 47.9 569 70 C563.28 71.91 557.88 73.62 552.04 74.87 C551.3 75.03 550.57 75.19 549.81 75.35 C547.42 75.87 545.02 76.37 542.62 76.88 C541.79 77.05 540.96 77.22 540.1 77.4 C516.91 82.25 493.58 85.53 470 87.75 C468.79 87.87 467.57 87.98 466.32 88.1 C446.44 89.83 426.51 90.08 406.56 90.03 C405.65 90.02 404.75 90.02 403.81 90.02 C395.32 89.99 386.82 89.95 378.33 89.9 C347.62 89.73 317.04 90.27 286.5 93.75 C285.76 93.83 285.02 93.91 284.25 94 C243.86 98.52 205.12 108.34 166.27 120.02 C144.49 126.54 123.75 132.59 102.25 122.02 C93.29 116.44 85.84 109.15 78.44 101.69 C77.12 100.38 77.12 100.38 75.77 99.04 C69.75 93 64.3 86.67 59 80 C57.87 78.61 56.73 77.23 55.59 75.85 C49.2 68.04 42.98 60.14 37 52 C35.94 50.57 34.89 49.14 33.83 47.7 C31.45 44.48 29.07 41.25 26.7 38.02 C24.24 34.68 21.77 31.34 19.3 28.01 C0 1.95 0 1.95 0 0 Z " fill="#F8CE18" transform="translate(711,701)"/>
<path d="M0 0 C1.56 -0 1.56 -0 3.16 -0 C6.65 -0.01 10.14 -0 13.63 0 C16.16 0 18.68 0 21.21 0 C26.71 -0 32.2 -0 37.7 0 C45.87 0.01 54.04 0.01 62.21 0.01 C75.96 0.01 89.71 0.01 103.46 0.02 C117.07 0.02 130.68 0.03 144.29 0.03 C145.13 0.03 145.98 0.03 146.85 0.03 C151.15 0.03 155.45 0.03 159.75 0.03 C190.19 0.03 220.63 0.04 251.08 0.05 C280.65 0.06 310.22 0.06 339.8 0.07 C341.16 0.07 341.16 0.07 342.56 0.07 C351.72 0.07 360.87 0.07 370.03 0.07 C388.68 0.07 407.33 0.08 425.98 0.08 C426.84 0.08 427.69 0.08 428.58 0.08 C485.84 0.09 543.09 0.11 600.35 0.12 C600.35 21.9 600.35 43.68 600.35 66.12 C546.94 66.19 493.52 66.26 440.11 66.29 C439.32 66.29 438.53 66.29 437.72 66.29 C420.54 66.31 403.37 66.32 386.2 66.33 C377.78 66.33 369.36 66.34 360.94 66.34 C360.1 66.34 359.26 66.34 358.4 66.34 C331.23 66.36 304.05 66.39 276.88 66.43 C248.96 66.47 221.04 66.49 193.12 66.5 C189.18 66.5 185.24 66.5 181.3 66.5 C180.52 66.5 179.75 66.5 178.95 66.5 C166.45 66.51 153.95 66.53 141.45 66.55 C128.89 66.57 116.33 66.58 103.78 66.58 C96.97 66.57 90.16 66.58 83.35 66.6 C77.13 66.62 70.9 66.62 64.68 66.61 C62.42 66.6 60.16 66.61 57.9 66.62 C54.84 66.64 51.79 66.63 48.73 66.62 C47.84 66.63 46.95 66.64 46.04 66.65 C40.8 66.59 38.25 65.94 34.35 62.12 C33.3 61.87 33.3 61.87 32.23 61.61 C29.56 60.92 28.85 59.56 27.28 57.33 C26.72 56.54 26.16 55.75 25.58 54.94 C24.99 54.09 24.4 53.25 23.79 52.37 C17.99 44.27 11.92 36.61 5.35 29.12 C4.72 28.39 4.08 27.66 3.43 26.9 C1.75 24.97 0.05 23.04 -1.65 21.12 C-2.69 19.94 -2.69 19.94 -3.76 18.73 C-8.34 13.58 -13.06 8.64 -18 3.84 C-19.65 2.12 -19.65 2.12 -19.65 1.12 C-13.06 0.28 -6.64 -0.02 0 0 Z " fill="#F5CA18" transform="translate(679.6496438980103,639.8769521713257)"/>
<path d="M0 0 C422.4 0 844.8 0 1280 0 C1280 9.9 1280 19.8 1280 30 C857.6 30 435.2 30 0 30 C0 20.1 0 10.2 0 0 Z " fill="#E9C516" transform="translate(0,192)"/>
<path d="M0 0 C422.4 0 844.8 0 1280 0 C1280 9.57 1280 19.14 1280 29 C857.6 29 435.2 29 0 29 C0 19.43 0 9.86 0 0 Z " fill="#EFC413" transform="translate(0,341)"/>
<path d="M0 0 C422.4 0 844.8 0 1280 0 C1280 6.6 1280 13.2 1280 20 C857.6 20 435.2 20 0 20 C0 13.4 0 6.8 0 0 Z " fill="#EFC413" transform="translate(0,261)"/>
<path d="M0 0 C0.96 -0 1.91 -0 2.9 -0.01 C4.49 -0 4.49 -0 6.11 0 C7.23 -0 8.36 -0 9.51 -0 C13.32 -0.01 17.13 -0 20.94 0 C23.68 0 26.42 0 29.16 0 C35.15 -0 41.13 0 47.11 0 C56 0.01 64.9 0.01 73.79 0.01 C88.75 0.01 103.72 0.01 118.68 0.02 C133.49 0.02 148.31 0.03 163.13 0.03 C164.05 0.03 164.97 0.03 165.92 0.03 C170.6 0.03 175.27 0.03 179.94 0.03 C213.07 0.03 246.21 0.04 279.34 0.05 C311.53 0.06 343.72 0.07 375.91 0.07 C376.9 0.07 377.9 0.07 378.92 0.07 C388.88 0.07 398.84 0.07 408.8 0.07 C429.09 0.08 449.38 0.08 469.67 0.08 C470.6 0.08 471.53 0.08 472.49 0.08 C534.83 0.09 597.16 0.11 659.49 0.12 C659.49 12.33 659.49 24.54 659.49 37.12 C600.45 37.37 541.4 37.61 482.35 37.79 C481.04 37.8 481.04 37.8 479.7 37.8 C460.71 37.86 441.71 37.91 422.72 37.97 C413.41 37.99 404.09 38.02 394.78 38.05 C393.39 38.05 393.39 38.05 391.97 38.05 C361.93 38.14 331.88 38.26 301.84 38.39 C270.97 38.52 240.1 38.63 209.22 38.7 C204.86 38.71 200.5 38.72 196.14 38.73 C195.28 38.73 194.43 38.73 193.54 38.73 C179.73 38.76 165.91 38.83 152.1 38.9 C138.21 38.98 124.32 39.02 110.43 39.03 C102.18 39.04 93.93 39.07 85.68 39.14 C79.51 39.19 73.35 39.19 67.19 39.17 C64.7 39.17 62.2 39.18 59.71 39.22 C38.76 39.47 38.76 39.47 31.66 33.73 C30.23 32.23 28.84 30.7 27.49 29.12 C26.33 28.17 25.14 27.25 23.92 26.37 C22.89 25.63 21.87 24.89 20.81 24.12 C9.16 15.84 -3.25 9.41 -16.51 4.12 C-13.05 1.82 -10.58 1.64 -6.51 1.12 C-4.12 -0.07 -2.67 -0 0 0 Z " fill="#F1CB17" transform="translate(620.5059844255447,602.8758015036583)"/>
<path d="M0 0 C422.4 0 844.8 0 1280 0 C1280 5.28 1280 10.56 1280 16 C857.6 16 435.2 16 0 16 C0 10.72 0 5.44 0 0 Z " fill="#E9C516" transform="translate(0,325)"/>
<path d="M0 0 C422.4 0 844.8 0 1280 0 C1280 4.62 1280 9.24 1280 14 C857.6 14 435.2 14 0 14 C0 9.38 0 4.76 0 0 Z " fill="#EDC715" transform="translate(0,370)"/>
<path d="M0 0 C422.4 0 844.8 0 1280 0 C1280 3.96 1280 7.92 1280 12 C857.6 12 435.2 12 0 12 C0 8.04 0 4.08 0 0 Z " fill="#F1CC17" transform="translate(0,461)"/>
<path d="M0 0 C422.4 0 844.8 0 1280 0 C1280 3.63 1280 7.26 1280 11 C857.6 11 435.2 11 0 11 C0 7.37 0 3.74 0 0 Z " fill="#EDC715" transform="translate(0,413)"/>
<path d="M0 0 C422.4 0 844.8 0 1280 0 C1280 2.97 1280 5.94 1280 9 C857.6 9 435.2 9 0 9 C0 6.03 0 3.06 0 0 Z " fill="#EBC119" transform="translate(0,183)"/>
<path d="M0 0 C1.84 -0.01 1.84 -0.01 3.72 -0.01 C7.08 -0.02 10.43 -0.01 13.78 0.01 C17.3 0.03 20.82 0.03 24.34 0.03 C30.25 0.03 36.15 0.05 42.06 0.07 C48.88 0.11 55.7 0.12 62.52 0.11 C69.79 0.11 77.07 0.13 84.35 0.15 C86.43 0.15 88.52 0.15 90.61 0.15 C94.51 0.15 98.41 0.17 102.32 0.2 C103.47 0.19 104.62 0.19 105.81 0.19 C111.51 0.24 116.27 0.63 121.66 2.49 C124.37 2.7 126.93 2.58 129.66 2.49 C129.99 3.15 130.32 3.81 130.66 4.49 C130.11 4.67 129.57 4.86 129.01 5.05 C118.2 8.72 107.47 12.53 96.83 16.68 C70.02 27.12 37.82 37.99 9.67 25.82 C-1.23 20.8 -12.24 14.38 -19.34 4.49 C-13.01 -0.08 -7.65 -0.07 0 0 Z " fill="#F1CB17" transform="translate(397.341796875,602.51416015625)"/>
<path d="M0 0 C0.99 0.5 0.99 0.5 2 1 C-1.2 4.7 -4.68 6.45 -9.12 8.24 C-9.82 8.53 -10.52 8.82 -11.23 9.12 C-13.48 10.05 -15.74 10.96 -18 11.88 C-19.15 12.34 -19.15 12.34 -20.33 12.82 C-50.04 24.89 -78.53 32.43 -110 21 C-119.52 16.93 -128.44 11.81 -137 6 C-136.34 5.01 -135.68 4.02 -135 3 C-129.12 5.75 -129.12 5.75 -128 8 C-114.14 8.12 -100.29 8.2 -86.43 8.26 C-79.99 8.29 -73.56 8.32 -67.12 8.38 C-60.91 8.43 -54.69 8.46 -48.47 8.47 C-46.1 8.48 -43.74 8.5 -41.38 8.53 C-23.59 8.81 -23.59 8.81 -7 3 C-4.68 1.94 -2.37 0.95 0 0 Z " fill="#F4CA17" transform="translate(244,548)"/>
<path d="M0 0 C4.94 0.42 7.01 2.56 10.38 6.06 C10.86 6.56 11.34 7.06 11.84 7.57 C15.1 10.97 18.26 14.45 21.32 18.03 C23.22 20.26 25.17 22.44 27.12 24.62 C36.8 35.52 36.8 35.52 38 39 C37.67 39.99 37.34 40.98 37 42 C35.82 40.62 35.82 40.62 34.62 39.22 C26.37 29.56 26.37 29.56 18 20 C17.31 19.21 16.61 18.42 15.89 17.61 C11.31 12.46 6.59 7.52 1.65 2.71 C0 1 0 1 0 0 Z " fill="#F8CE18" transform="translate(660,641)"/>
<path d="M0 0 C-10.06 6.71 -25.28 6.23 -37 6 C-35.43 4.15 -34.51 3.11 -32.1 2.6 C-31.05 2.58 -31.05 2.58 -29.98 2.56 C-29.21 2.53 -28.43 2.51 -27.63 2.48 C-26.82 2.46 -26.02 2.45 -25.19 2.44 C-19.72 2.32 -15.16 2.03 -10 0 C-6.28 -1 -3.73 -0.96 0 0 Z " fill="#F1CC17" transform="translate(199,569)"/>
<path d="M0 0 C5.37 1.39 8.71 3.82 12.81 7.38 C13.4 7.86 13.98 8.34 14.58 8.84 C17.62 11.42 19.29 13.07 20 17 C15.22 15.49 12.07 12.8 8.38 9.56 C7.8 9.07 7.23 8.58 6.64 8.08 C4 5.8 1.41 3.52 -1 1 C-0.67 0.67 -0.34 0.34 0 0 Z " fill="#F1CC17" transform="translate(88,536)"/>
<path d="M0 0 C7.05 0.14 13.5 1.17 20.19 3.31 C21.18 3.61 21.18 3.61 22.19 3.92 C24.04 4.55 24.04 4.55 27 6 C27.93 8.17 27.93 8.17 28 10 C24.02 9.35 20.59 8.1 16.88 6.56 C10.97 4.23 5.28 2.84 -1 2 C-0.67 1.34 -0.34 0.68 0 0 Z " fill="#F1CB17" transform="translate(291,541)"/>
<path d="M0 0 C0 0.66 0 1.32 0 2 C-6.67 4.67 -13.33 7.33 -20 10 C-19.8 8.17 -19.8 8.17 -19 6 C-16.82 4.55 -16.82 4.55 -14.12 3.31 C-13.24 2.9 -12.36 2.48 -11.45 2.05 C-7.4 0.31 -4.38 -0.1 0 0 Z " fill="#F1CC17" transform="translate(38,519)"/>
<path d="M0 0 C5.22 0.41 8.3 1.19 12 5 C12 5.99 12 6.98 12 8 C7.5 6.31 3.27 4.18 -1 2 C-0.67 1.34 -0.34 0.68 0 0 Z " fill="#F1CC17" transform="translate(66,523)"/>
<path d="M0 0 C0 0.33 0 0.66 0 1 C-2.25 1.65 -4.5 2.29 -6.75 2.94 C-8 3.3 -9.26 3.66 -10.55 4.03 C-13.03 4.73 -15.5 5.4 -18 6 C-17 3.32 -16.44 2.22 -13.83 0.92 C-8.87 -0.49 -5.11 -1.48 0 0 Z " fill="#F1CB17" transform="translate(263,545)"/>
<path d="M0 0 C4.67 1.32 4.67 1.32 7 3 C8.49 5.9 9.3 8.83 10 12 C8.33 10.33 6.67 8.67 5 7 C4.07 6.11 3.14 5.23 2.19 4.31 C0 2 0 2 0 0 Z " fill="#F1CB17" transform="translate(352,578)"/>
<path d="M0 0 C4.91 0.43 7.53 2.61 11 6 C11.88 8.31 11.88 8.31 12 10 C7.73 7.25 3.81 4.36 0 1 C0 0.67 0 0.34 0 0 Z " fill="#F1CC17" transform="translate(332,560)"/>
</svg>
